<svg width="80" height="80" viewBox="0 0 80 80" fill="none" xmlns="http://www.w3.org/2000/svg">
<circle cx="40" cy="40" r="40" fill="#F1F4FB"/>
<g clip-path="url(#clip0_102_2459)">
<path d="M59.2966 32.1063L54.2384 36.4188L55.7531 42.8391C55.8599 43.2891 55.8316 43.7606 55.6718 44.1946C55.512 44.6286 55.2278 45.0059 54.8547 45.2792C54.4774 45.5563 54.0268 45.716 53.5593 45.7384C53.0917 45.7607 52.6279 45.6448 52.2259 45.405L46.4759 41.9909L40.7259 45.405C40.3239 45.6448 39.8601 45.7607 39.3925 45.7384C38.9249 45.716 38.4743 45.5563 38.0971 45.2792C37.7242 45.0057 37.4401 44.6284 37.2803 44.1945C37.1205 43.7605 37.0921 43.2891 37.1986 42.8391L38.7134 36.4188L33.6534 32.1063C33.2993 31.8041 33.0425 31.4038 32.9154 30.956C32.7883 30.5081 32.7966 30.0327 32.9391 29.5895C33.0817 29.1463 33.3521 28.7552 33.7165 28.4654C34.0808 28.1756 34.5228 28.0001 34.9867 27.9609L41.6764 27.3949L44.2855 21.3125C44.4696 20.8861 44.7746 20.5229 45.1627 20.2678C45.5508 20.0126 46.0051 19.8766 46.4696 19.8766C46.9341 19.8766 47.3884 20.0126 47.7765 20.2678C48.1646 20.5229 48.4695 20.8861 48.6537 21.3125L51.2628 27.3985L57.9507 27.9609C58.4157 27.9974 58.8594 28.171 59.2257 28.4597C59.592 28.7485 59.8644 29.1394 60.0085 29.5829C60.1526 30.0265 60.1618 30.5029 60.0351 30.9517C59.9084 31.4006 59.6514 31.8018 59.2966 32.1045V32.1063Z" fill="#002B52"/>
<path d="M32.8462 37.5454C32.7127 37.4118 32.5542 37.3057 32.3796 37.2334C32.2051 37.1611 32.0181 37.1238 31.8292 37.1238C31.6403 37.1238 31.4532 37.1611 31.2787 37.2334C31.1042 37.3057 30.9456 37.4118 30.8121 37.5454L20.7496 47.6079C20.4799 47.8776 20.3284 48.2435 20.3284 48.6249C20.3284 49.0064 20.4799 49.3722 20.7496 49.642C21.0194 49.9117 21.3852 50.0632 21.7667 50.0632C22.1481 50.0632 22.514 49.9117 22.7837 49.642L32.8462 39.5795C32.9799 39.446 33.0859 39.2874 33.1582 39.1129C33.2306 38.9384 33.2678 38.7514 33.2678 38.5624C33.2678 38.3735 33.2306 38.1865 33.1582 38.012C33.0859 37.8375 32.9799 37.6789 32.8462 37.5454ZM35.7212 47.6079C35.5877 47.4743 35.4292 47.3682 35.2546 47.2959C35.0801 47.2235 34.8931 47.1863 34.7042 47.1863C34.5153 47.1863 34.3282 47.2235 34.1537 47.2959C33.9792 47.3682 33.8206 47.4743 33.6871 47.6079L23.6246 57.6704C23.4911 57.804 23.3851 57.9625 23.3129 58.137C23.2406 58.3115 23.2034 58.4986 23.2034 58.6874C23.2034 58.8763 23.2406 59.0634 23.3129 59.2379C23.3851 59.4124 23.4911 59.5709 23.6246 59.7045C23.8944 59.9742 24.2602 60.1257 24.6417 60.1257C24.8305 60.1257 25.0176 60.0885 25.1921 60.0163C25.3666 59.944 25.5251 59.838 25.6587 59.7045L35.7212 49.642C35.8549 49.5085 35.9609 49.3499 36.0332 49.1754C36.1056 49.0009 36.1428 48.8139 36.1428 48.6249C36.1428 48.436 36.1056 48.249 36.0332 48.0745C35.9609 47.9 35.8549 47.7414 35.7212 47.6079ZM46.6264 47.6079L36.5639 57.6704C36.2942 57.9401 36.1427 58.306 36.1427 58.6874C36.1427 59.0689 36.2942 59.4347 36.5639 59.7045C36.8337 59.9742 37.1995 60.1257 37.581 60.1257C37.9624 60.1257 38.3283 59.9742 38.598 59.7045L48.6605 49.642C48.9302 49.3725 49.0819 49.0069 49.082 48.6256C49.0822 48.2443 48.9309 47.8785 48.6614 47.6088C48.3919 47.3391 48.0263 47.1875 47.645 47.1873C47.2637 47.1871 46.898 47.3384 46.6282 47.6079H46.6264Z" fill="#446BF0"/>
</g>
<defs>
<clipPath id="clip0_102_2459">
<rect width="46" height="46" fill="white" transform="translate(17 17)"/>
</clipPath>
</defs>
</svg>
