<svg width="80" height="80" viewBox="0 0 80 80" fill="none" xmlns="http://www.w3.org/2000/svg">
<circle cx="40" cy="40" r="40" fill="#F1F4FB"/>
<g clip-path="url(#clip0_102_2466)">
<path d="M21.3125 54.375C21.3125 54.7562 21.464 55.1219 21.7335 55.3915C22.0031 55.661 22.3688 55.8125 22.75 55.8125H57.25C57.6312 55.8125 57.9969 55.661 58.2665 55.3915C58.536 55.1219 58.6875 54.7562 58.6875 54.375C58.6875 53.9938 58.536 53.6281 58.2665 53.3585C57.9969 53.0889 57.6312 52.9375 57.25 52.9375H55.8125V41.4375C55.8125 41.0563 55.661 40.6906 55.3915 40.421C55.1219 40.1514 54.7562 40 54.375 40H50.0625C49.6813 40 49.3156 40.1514 49.046 40.421C48.7765 40.6906 48.625 41.0563 48.625 41.4375V52.9375H45.75V32.8125C45.75 32.4313 45.5985 32.0656 45.329 31.796C45.0594 31.5265 44.6937 31.375 44.3125 31.375H38.5625C38.1813 31.375 37.8156 31.5265 37.546 31.796C37.2764 32.0656 37.125 32.4313 37.125 32.8125V52.9375H34.25V24.1875C34.25 23.8063 34.0986 23.4406 33.829 23.171C33.5594 22.9015 33.1937 22.75 32.8125 22.75H25.625C25.2438 22.75 24.8781 22.9015 24.6085 23.171C24.339 23.4406 24.1875 23.8063 24.1875 24.1875V52.9375H22.75C22.3688 52.9375 22.0031 53.0889 21.7335 53.3585C21.464 53.6281 21.3125 53.9938 21.3125 54.375Z" fill="#002B52"/>
<path d="M36.92 33.849C36.92 32.1922 38.2632 30.849 39.92 30.849H43.2638C44.9206 30.849 46.2638 32.1922 46.2638 33.849V53.1303H36.92V33.849Z" fill="#446BF0"/>
</g>
<defs>
<clipPath id="clip0_102_2466">
<rect width="46" height="46" fill="white" transform="translate(17 17)"/>
</clipPath>
</defs>
</svg>
