<svg width="80" height="80" viewBox="0 0 80 80" fill="none" xmlns="http://www.w3.org/2000/svg">
<circle cx="40" cy="40" r="40" fill="#F1F4FB"/>
<g clip-path="url(#clip0_102_2425)">
<path d="M54.375 22.75H50.0625V21.3125C50.0625 20.9313 49.9111 20.5656 49.6415 20.296C49.3719 20.0265 49.0062 19.875 48.625 19.875C48.2438 19.875 47.8781 20.0265 47.6085 20.296C47.3389 20.5656 47.1875 20.9313 47.1875 21.3125V22.75H32.8125V21.3125C32.8125 20.9313 32.661 20.5656 32.3915 20.296C32.1219 20.0265 31.7562 19.875 31.375 19.875C30.9938 19.875 30.6281 20.0265 30.3585 20.296C30.089 20.5656 29.9375 20.9313 29.9375 21.3125V22.75H25.625C24.8625 22.75 24.1312 23.0529 23.5921 23.5921C23.0529 24.1312 22.75 24.8625 22.75 25.625V54.375C22.75 55.1375 23.0529 55.8688 23.5921 56.4079C24.1312 56.9471 24.8625 57.25 25.625 57.25H54.375C55.1375 57.25 55.8688 56.9471 56.4079 56.4079C56.9471 55.8688 57.25 55.1375 57.25 54.375V25.625C57.25 24.8625 56.9471 24.1312 56.4079 23.5921C55.8688 23.0529 55.1375 22.75 54.375 22.75ZM54.375 31.375H25.625V25.625H29.9375V27.0625C29.9375 27.4437 30.089 27.8094 30.3585 28.079C30.6281 28.3485 30.9938 28.5 31.375 28.5C31.7562 28.5 32.1219 28.3485 32.3915 28.079C32.661 27.8094 32.8125 27.4437 32.8125 27.0625V25.625H47.1875V27.0625C47.1875 27.4437 47.3389 27.8094 47.6085 28.079C47.8781 28.3485 48.2438 28.5 48.625 28.5C49.0062 28.5 49.3719 28.3485 49.6415 28.079C49.9111 27.8094 50.0625 27.4437 50.0625 27.0625V25.625H54.375V31.375Z" fill="#002B52"/>
<g clip-path="url(#clip1_102_2425)">
<path d="M49.1377 40.4835L39.764 50.3028C39.6555 50.4164 39.5268 50.5066 39.3851 50.5681C39.2433 50.6296 39.0914 50.6613 38.938 50.6613C38.7846 50.6613 38.6327 50.6296 38.491 50.5681C38.3493 50.5066 38.2205 50.4164 38.1121 50.3028L32.8839 44.7967C32.6653 44.5672 32.5425 44.2563 32.5425 43.9321C32.5425 43.6079 32.6653 43.297 32.8839 43.0676L34.6359 41.2322C34.8542 41.0035 35.15 40.8746 35.4588 40.8737C35.7675 40.8728 36.064 41.0001 36.2835 41.2276L38.9581 43.9249L38.9661 43.9333L45.7352 36.9458C45.9541 36.7175 46.2505 36.5892 46.5594 36.5892C46.8683 36.5892 47.1646 36.7175 47.3835 36.9458L49.1355 38.7476C49.2449 38.8611 49.3318 38.9962 49.3911 39.1451C49.4505 39.294 49.4811 39.4537 49.4813 39.6151C49.4815 39.7764 49.4513 39.9362 49.3923 40.0852C49.3333 40.2343 49.2468 40.3696 49.1377 40.4835Z" fill="#F1F4FB"/>
</g>
</g>
<defs>
<clipPath id="clip0_102_2425">
<rect width="46" height="46" fill="white" transform="translate(17 17)"/>
</clipPath>
<clipPath id="clip1_102_2425">
<rect width="18.6875" height="19.5774" fill="white" transform="translate(31.375 33.5312)"/>
</clipPath>
</defs>
</svg>
