<svg width="132" height="46" viewBox="0 0 132 46" fill="none" xmlns="http://www.w3.org/2000/svg">
<path d="M76.1112 12.607V35.4063H71.877V25.6352H60.0865V35.4063H55.8524V12.607H60.0865V22.0199H71.877V12.607H76.1112ZM98.1148 18.0137L89.9722 36.8068C89.2122 38.6959 88.2894 40.0205 87.2037 40.7804C86.118 41.5621 84.8044 41.953 83.2627 41.953C82.3942 41.953 81.5365 41.8118 80.6896 41.5296C79.8428 41.2473 79.148 40.8564 78.6051 40.357L80.2336 37.3605C80.6245 37.7297 81.0805 38.0228 81.6016 38.2399C82.1444 38.4571 82.6873 38.5656 83.2301 38.5656C83.9467 38.5656 84.5329 38.3811 84.9889 38.0119C85.4666 37.6428 85.9009 37.024 86.2917 36.1554L86.5849 35.4715L78.996 18.0137H83.2301L88.702 30.879L94.2064 18.0137H98.1148ZM104.535 20.5542C105.708 18.7302 107.771 17.8183 110.724 17.8183V21.6942C110.376 21.629 110.061 21.5964 109.779 21.5964C108.194 21.5964 106.956 22.0633 106.066 22.997C105.176 23.9089 104.731 25.2335 104.731 26.9706V35.4063H100.659V18.0137H104.535V20.5542ZM130.369 26.8077C130.369 27.09 130.347 27.4917 130.304 28.0128H116.657C116.895 29.2939 117.514 30.3145 118.513 31.0744C119.534 31.8127 120.793 32.1818 122.291 32.1818C124.202 32.1818 125.776 31.5521 127.014 30.2928L129.196 32.8007C128.414 33.7344 127.427 34.4401 126.232 34.9178C125.038 35.3955 123.692 35.6343 122.194 35.6343C120.283 35.6343 118.6 35.2543 117.145 34.4943C115.69 33.7344 114.561 32.6813 113.758 31.335C112.976 29.967 112.585 28.4254 112.585 26.71C112.585 25.0163 112.965 23.4964 113.725 22.1501C114.507 20.7822 115.582 19.7182 116.95 18.9582C118.318 18.1983 119.859 17.8183 121.575 17.8183C123.268 17.8183 124.777 18.1983 126.102 18.9582C127.448 19.6965 128.49 20.7496 129.229 22.1176C129.989 23.4638 130.369 25.0272 130.369 26.8077ZM121.575 21.0753C120.272 21.0753 119.164 21.4662 118.253 22.2479C117.362 23.0078 116.819 24.0284 116.624 25.3095H126.493C126.319 24.0501 125.787 23.0295 124.897 22.2479C124.007 21.4662 122.899 21.0753 121.575 21.0753Z" fill="black"/>
<path d="M76.1112 12.607H76.3944V12.3238H76.1112V12.607ZM76.1112 35.4063V35.6895H76.3944V35.4063H76.1112ZM71.877 35.4063H71.5938V35.6895H71.877V35.4063ZM71.877 25.6352H72.1603V25.352H71.877V25.6352ZM60.0865 25.6352V25.352H59.8033V25.6352H60.0865ZM60.0865 35.4063V35.6895H60.3698V35.4063H60.0865ZM55.8524 35.4063H55.5692V35.6895H55.8524V35.4063ZM55.8524 12.607V12.3238H55.5692V12.607H55.8524ZM60.0865 12.607H60.3698V12.3238H60.0865V12.607ZM60.0865 22.0199H59.8033V22.3031H60.0865V22.0199ZM71.877 22.0199V22.3031H72.1603V22.0199H71.877ZM71.877 12.607V12.3238H71.5938V12.607H71.877ZM75.828 12.607V35.4063H76.3944V12.607H75.828ZM76.1112 35.1231H71.877V35.6895H76.1112V35.1231ZM72.1603 35.4063V25.6352H71.5938V35.4063H72.1603ZM71.877 25.352H60.0865V25.9184H71.877V25.352ZM59.8033 25.6352V35.4063H60.3698V25.6352H59.8033ZM60.0865 35.1231H55.8524V35.6895H60.0865V35.1231ZM56.1356 35.4063V12.607H55.5692V35.4063H56.1356ZM55.8524 12.8902H60.0865V12.3238H55.8524V12.8902ZM59.8033 12.607V22.0199H60.3698V12.607H59.8033ZM60.0865 22.3031H71.877V21.7366H60.0865V22.3031ZM72.1603 22.0199V12.607H71.5938V22.0199H72.1603ZM71.877 12.8902H76.1112V12.3238H71.877V12.8902ZM98.1148 18.0137L98.3747 18.1263L98.5462 17.7305H98.1148V18.0137ZM89.9722 36.8068L89.7122 36.6942L89.7095 36.7011L89.9722 36.8068ZM87.2037 40.7804L87.0413 40.5484L87.0382 40.5506L87.2037 40.7804ZM80.6896 41.5296L80.7792 41.2609L80.7792 41.2609L80.6896 41.5296ZM78.6051 40.357L78.3563 40.2218L78.2508 40.4159L78.4134 40.5654L78.6051 40.357ZM80.2336 37.3605L80.4281 37.1546L80.1605 36.9019L79.9848 37.2253L80.2336 37.3605ZM81.6016 38.2399L81.4927 38.5014L81.4964 38.5029L81.6016 38.2399ZM84.9889 38.0119L84.8157 37.7878L84.8107 37.7918L84.9889 38.0119ZM86.2917 36.1554L86.5501 36.2717L86.5521 36.267L86.2917 36.1554ZM86.5849 35.4715L86.8452 35.583L86.8934 35.4707L86.8446 35.3585L86.5849 35.4715ZM78.996 18.0137V17.7305H78.564L78.7362 18.1266L78.996 18.0137ZM83.2301 18.0137L83.4908 17.9029L83.4174 17.7305H83.2301V18.0137ZM88.702 30.879L88.4413 30.9899L88.7012 31.6008L88.9624 30.9904L88.702 30.879ZM94.2064 18.0137V17.7305H94.0195L93.946 17.9023L94.2064 18.0137ZM97.8549 17.9011L89.7123 36.6942L90.2321 36.9194L98.3747 18.1263L97.8549 17.9011ZM89.7095 36.7011C88.9598 38.5646 88.0639 39.8326 87.0413 40.5484L87.3661 41.0125C88.5149 40.2083 89.4647 38.8272 90.235 36.9125L89.7095 36.7011ZM87.0382 40.5506C86.0078 41.2925 84.7544 41.6697 83.2627 41.6697V42.2362C84.8544 42.2362 86.2282 41.8318 87.3692 41.0103L87.0382 40.5506ZM83.2627 41.6697C82.4254 41.6697 81.598 41.5338 80.7792 41.2609L80.6001 41.7982C81.475 42.0899 82.3629 42.2362 83.2627 42.2362V41.6697ZM80.7792 41.2609C79.9625 40.9886 79.3048 40.6159 78.7969 40.1486L78.4134 40.5654C78.9912 41.097 79.7231 41.5059 80.6001 41.7982L80.7792 41.2609ZM78.854 40.4923L80.4825 37.4958L79.9848 37.2253L78.3563 40.2218L78.854 40.4923ZM80.0392 37.5664C80.4562 37.9603 80.9415 38.2717 81.4927 38.5014L81.7105 37.9785C81.2194 37.7739 80.7928 37.4991 80.4281 37.1546L80.0392 37.5664ZM81.4964 38.5029C82.0701 38.7324 82.6486 38.8489 83.2301 38.8489V38.2824C82.726 38.2824 82.2188 38.1818 81.7068 37.977L81.4964 38.5029ZM83.2301 38.8489C83.9967 38.8489 84.6503 38.6505 85.1671 38.2321L84.8107 37.7918C84.4156 38.1117 83.8966 38.2824 83.2301 38.2824V38.8489ZM85.1621 38.2361C85.6919 37.8267 86.15 37.1605 86.55 36.2717L86.0335 36.0392C85.6518 36.8874 85.2414 37.459 84.8158 37.7878L85.1621 38.2361ZM86.5521 36.267L86.8452 35.583L86.3246 35.3599L86.0314 36.0439L86.5521 36.267ZM86.8446 35.3585L79.2557 17.9008L78.7362 18.1266L86.3251 35.5844L86.8446 35.3585ZM78.996 18.2969H83.2301V17.7305H78.996V18.2969ZM82.9695 18.1245L88.4413 30.9899L88.9626 30.7682L83.4908 17.9029L82.9695 18.1245ZM88.9624 30.9904L94.4668 18.1251L93.946 17.9023L88.4416 30.7676L88.9624 30.9904ZM94.2064 18.2969H98.1148V17.7305H94.2064V18.2969ZM104.535 20.5542H104.252V21.5185L104.774 20.7073L104.535 20.5542ZM110.724 17.8183H111.007V17.5351H110.724V17.8183ZM110.724 21.6942L110.671 21.9725L111.007 22.0354V21.6942H110.724ZM106.066 22.997L106.269 23.1948L106.271 23.1924L106.066 22.997ZM104.731 35.4063V35.6895H105.014V35.4063H104.731ZM100.659 35.4063H100.376V35.6895H100.659V35.4063ZM100.659 18.0137V17.7305H100.376V18.0137H100.659ZM104.535 18.0137H104.818V17.7305H104.535V18.0137ZM104.774 20.7073C105.876 18.9923 107.828 18.1015 110.724 18.1015V17.5351C107.713 17.5351 105.54 18.4682 104.297 20.401L104.774 20.7073ZM110.44 17.8183V21.6942H111.007V17.8183H110.44ZM110.776 21.4158C110.415 21.3482 110.083 21.3132 109.779 21.3132V21.8797C110.04 21.8797 110.337 21.9098 110.671 21.9725L110.776 21.4158ZM109.779 21.3132C108.136 21.3132 106.817 21.7994 105.861 22.8015L106.271 23.1924C107.096 22.3272 108.253 21.8797 109.779 21.8797V21.3132ZM105.863 22.7991C104.905 23.7808 104.447 25.187 104.447 26.9706H105.014C105.014 25.28 105.447 24.0371 106.269 23.1948L105.863 22.7991ZM104.447 26.9706V35.4063H105.014V26.9706H104.447ZM104.731 35.1231H100.659V35.6895H104.731V35.1231ZM100.943 35.4063V18.0137H100.376V35.4063H100.943ZM100.659 18.2969H104.535V17.7305H100.659V18.2969ZM104.252 18.0137V20.5542H104.818V18.0137H104.252ZM130.304 28.0128V28.296H130.564L130.586 28.0363L130.304 28.0128ZM116.657 28.0128V27.7296H116.316L116.378 28.0647L116.657 28.0128ZM118.513 31.0744L118.342 31.2999L118.347 31.3039L118.513 31.0744ZM127.014 30.2928L127.228 30.1068L127.027 29.8758L126.812 30.0942L127.014 30.2928ZM129.196 32.8007L129.413 32.9825L129.569 32.7971L129.41 32.6148L129.196 32.8007ZM126.232 34.9178L126.127 34.6548L126.232 34.9178ZM117.145 34.4943L117.014 34.7454L117.014 34.7454L117.145 34.4943ZM113.758 31.335L113.512 31.4755L113.515 31.4801L113.758 31.335ZM113.725 22.1501L113.479 22.0096L113.479 22.0109L113.725 22.1501ZM116.95 18.9582L117.087 19.2058L117.087 19.2058L116.95 18.9582ZM126.102 18.9582L125.961 19.2039L125.966 19.2066L126.102 18.9582ZM129.229 22.1176L128.979 22.2521L128.982 22.2568L129.229 22.1176ZM118.253 22.2479L118.436 22.4633L118.437 22.4629L118.253 22.2479ZM116.624 25.3095L116.344 25.2668L116.294 25.5927H116.624V25.3095ZM126.493 25.3095V25.5927H126.818L126.773 25.2708L126.493 25.3095ZM124.897 22.2479L124.71 22.4607L124.71 22.4607L124.897 22.2479ZM130.085 26.8077C130.085 27.0781 130.065 27.4706 130.021 27.9893L130.586 28.0363C130.629 27.5128 130.652 27.1018 130.652 26.8077H130.085ZM130.304 27.7296H116.657V28.296H130.304V27.7296ZM116.378 28.0647C116.629 29.412 117.284 30.4955 118.342 31.2998L118.685 30.849C117.744 30.1334 117.161 29.1758 116.935 27.9609L116.378 28.0647ZM118.347 31.3039C119.425 32.0834 120.745 32.4651 122.291 32.4651V31.8986C120.841 31.8986 119.643 31.5421 118.679 30.845L118.347 31.3039ZM122.291 32.4651C124.271 32.4651 125.92 31.8096 127.216 30.4913L126.812 30.0942C125.632 31.2947 124.133 31.8986 122.291 31.8986V32.4651ZM126.8 30.4787L128.983 32.9866L129.41 32.6148L127.228 30.1068L126.8 30.4787ZM128.979 32.6189C128.229 33.5146 127.28 34.1935 126.127 34.6548L126.337 35.1807C127.573 34.6866 128.6 33.9541 129.413 32.9825L128.979 32.6189ZM126.127 34.6548C124.971 35.1171 123.662 35.3511 122.194 35.3511V35.9175C123.722 35.9175 125.105 35.6738 126.337 35.1807L126.127 34.6548ZM122.194 35.3511C120.321 35.3511 118.684 34.9789 117.276 34.2433L117.014 34.7454C118.515 35.5297 120.245 35.9175 122.194 35.9175V35.3511ZM117.276 34.2433C115.866 33.5064 114.776 32.489 114.001 31.1899L113.515 31.4801C114.346 32.8735 115.515 33.9623 117.014 34.7454L117.276 34.2433ZM114.004 31.1945C113.249 29.8731 112.868 28.3806 112.868 26.71H112.302C112.302 28.4702 112.704 30.061 113.512 31.4755L114.004 31.1945ZM112.868 26.71C112.868 25.0603 113.238 23.5892 113.972 22.2894L113.479 22.0109C112.692 23.4036 112.302 24.9723 112.302 26.71H112.868ZM113.971 22.2907C114.727 20.9673 115.765 19.9405 117.087 19.2058L116.812 18.7107C115.399 19.4959 114.286 20.5971 113.479 22.0096L113.971 22.2907ZM117.087 19.2058C118.409 18.4714 119.903 18.1015 121.575 18.1015V17.5351C119.816 17.5351 118.226 17.9251 116.812 18.7107L117.087 19.2058ZM121.575 18.1015C123.224 18.1015 124.684 18.4711 125.961 19.2039L126.243 18.7126C124.871 17.9254 123.312 17.5351 121.575 17.5351V18.1015ZM125.966 19.2066C127.264 19.9182 128.267 20.9315 128.979 22.2521L129.478 21.9831C128.714 20.5677 127.633 19.4748 126.238 18.7099L125.966 19.2066ZM128.982 22.2568C129.715 23.5545 130.085 25.0685 130.085 26.8077H130.652C130.652 24.9859 130.263 23.3732 129.475 21.9783L128.982 22.2568ZM121.575 20.7921C120.21 20.7921 119.036 21.2033 118.068 22.0328L118.437 22.4629C119.293 21.7291 120.333 21.3585 121.575 21.3585V20.7921ZM118.069 22.0324C117.121 22.8414 116.548 23.9262 116.344 25.2668L116.904 25.3522C117.09 24.1306 117.604 23.1743 118.436 22.4633L118.069 22.0324ZM116.624 25.5927H126.493V25.0263H116.624V25.5927ZM126.773 25.2708C126.591 23.9493 126.029 22.8651 125.084 22.035L124.71 22.4607C125.545 23.194 126.047 24.1509 126.212 25.3482L126.773 25.2708ZM125.084 22.035C124.136 21.2025 122.959 20.7921 121.575 20.7921V21.3585C122.839 21.3585 123.878 21.7298 124.71 22.4607L125.084 22.035Z" fill="black"/>
<g clip-path="url(#clip0_111_5374)">
<path fill-rule="evenodd" clip-rule="evenodd" d="M35.1961 10.7936C37.6086 13.2061 39.2515 16.2797 39.9171 19.6259C40.0227 20.1569 40.1029 20.6909 40.158 21.2263H28.9225L29.6815 16.6723C29.8423 15.7079 29.1907 14.7957 28.2263 14.635C27.2618 14.4743 26.3497 15.1258 26.1889 16.0902L23.9848 29.3152C23.824 30.2797 24.4756 31.1918 25.44 31.3526C26.4045 31.5133 27.3166 30.8618 27.4773 29.8973L28.3324 24.767H40.1569C39.9861 26.4172 39.5772 28.0431 38.9354 29.5925C37.6298 32.7445 35.4189 35.4386 32.5821 37.3341C29.7454 39.2295 26.4102 40.2412 22.9985 40.2412C19.5868 40.2412 16.2517 39.2295 13.4149 37.3341C10.5782 35.4386 8.36719 32.7445 7.06158 29.5925C6.39394 27.9807 5.97838 26.2861 5.82068 24.5675C6.05827 24.686 6.32625 24.7526 6.60979 24.7526H17.0776L16.3171 29.3153C16.1564 30.2798 16.8079 31.1919 17.7723 31.3527C18.7368 31.5134 19.6489 30.8619 19.8097 29.8974L22.0138 16.6724C22.1746 15.708 21.5231 14.7958 20.5586 14.6351C19.5942 14.4743 18.682 15.1259 18.5213 16.0903L17.6677 21.2119H6.60979C6.32693 21.2119 6.05956 21.2782 5.8224 21.3962C5.8774 20.8039 5.96318 20.213 6.07997 19.6259C6.74557 16.2797 8.38848 13.2061 10.8009 10.7936C14.0359 7.55861 18.4235 5.74121 22.9985 5.74121C27.5735 5.74121 31.9611 7.55861 35.1961 10.7936Z" fill="black"/>
</g>
<defs>
<clipPath id="clip0_111_5374">
<rect width="46" height="46" fill="white"/>
</clipPath>
</defs>
</svg>
